<svg xmlns="http://www.w3.org/2000/svg" viewBox="0 0 600 600" width="600" height="600" role="img" aria-label="Spades — the ace over a won trick">
  <defs>
  <radialGradient id="felt" cx="0.5" cy="0.28" r="1.05">
      <stop offset="0" stop-color="#33566E"/>
      <stop offset="0.6" stop-color="#2A4459"/>
      <stop offset="1" stop-color="#1F3242"/>
    </radialGradient>
  <linearGradient id="cardface" x1="0" y1="0" x2="0.7" y2="1">
      <stop offset="0" stop-color="#FFFEF8"/>
      <stop offset="1" stop-color="#EFE5CE"/>
    </linearGradient>
  <radialGradient id="vig" cx="0.5" cy="0.45" r="0.85">
      <stop offset="0.62" stop-color="#000" stop-opacity="0"/>
      <stop offset="1" stop-color="#000" stop-opacity="0.30"/>
    </radialGradient>
  </defs>
  <rect width="600" height="600" fill="url(#felt)"/>
<ellipse cx="300" cy="520" rx="230" ry="26" fill="#000" opacity="0.25"/><g transform="translate(330 300) rotate(90 75.0 105.0)"><rect width="150" height="210" rx="15" fill="#7A3B4A" stroke="#2A2017" stroke-opacity="0.4" stroke-width="2"/><rect x="14" y="10" width="123" height="183" rx="9" fill="none" stroke="#E8C9A0" stroke-width="3" stroke-opacity="0.7"/><circle cx="75.0" cy="105.0" r="24" fill="none" stroke="#E8C9A0" stroke-width="3" stroke-opacity="0.7"/></g><g transform="translate(338 292) rotate(96 75.0 105.0)"><rect width="150" height="210" rx="15" fill="#7A3B4A" stroke="#2A2017" stroke-opacity="0.4" stroke-width="2"/><rect x="14" y="10" width="123" height="183" rx="9" fill="none" stroke="#E8C9A0" stroke-width="3" stroke-opacity="0.7"/><circle cx="75.0" cy="105.0" r="24" fill="none" stroke="#E8C9A0" stroke-width="3" stroke-opacity="0.7"/></g><g transform="translate(346 284) rotate(84 75.0 105.0)"><rect width="150" height="210" rx="15" fill="#7A3B4A" stroke="#2A2017" stroke-opacity="0.4" stroke-width="2"/><rect x="14" y="10" width="123" height="183" rx="9" fill="none" stroke="#E8C9A0" stroke-width="3" stroke-opacity="0.7"/><circle cx="75.0" cy="105.0" r="24" fill="none" stroke="#E8C9A0" stroke-width="3" stroke-opacity="0.7"/></g><g transform="translate(120 105) rotate(-7 105.0 147.0)"><rect width="210" height="294" rx="21" fill="url(#cardface)" stroke="#2A2017" stroke-opacity="0.35" stroke-width="2"/><text x="27" y="67" font-family="Georgia, serif" font-weight="700" font-size="55" fill="#22262E">A</text><g transform="translate(42 105) scale(1.26) translate(-12 -12)" fill="#22262E"><path d="M12,2 C12,2 4,10 4,14.5 C4,17.5 7,19 9.5,17.2 C9,19.4 8,21 6.5,22 L17.5,22 C16,21 15,19.4 14.5,17.2 C17,19 20,17.5 20,14.5 C20,10 12,2 12,2 Z"/></g><g transform="translate(105.0 188.16) scale(3.6399999999999997) translate(-12 -12)" fill="#22262E"><path d="M12,2 C12,2 4,10 4,14.5 C4,17.5 7,19 9.5,17.2 C9,19.4 8,21 6.5,22 L17.5,22 C16,21 15,19.4 14.5,17.2 C17,19 20,17.5 20,14.5 C20,10 12,2 12,2 Z"/></g></g><g transform="translate(292 88) rotate(9 85.0 119.0)"><rect width="170" height="238" rx="17" fill="url(#cardface)" stroke="#2A2017" stroke-opacity="0.35" stroke-width="2"/><text x="22" y="54" font-family="Georgia, serif" font-weight="700" font-size="44" fill="#22262E">K</text><g transform="translate(34 85) scale(1.02) translate(-12 -12)" fill="#22262E"><path d="M12,2 C12,2 4,10 4,14.5 C4,17.5 7,19 9.5,17.2 C9,19.4 8,21 6.5,22 L17.5,22 C16,21 15,19.4 14.5,17.2 C17,19 20,17.5 20,14.5 C20,10 12,2 12,2 Z"/></g><g transform="translate(85.0 152.32) scale(2.9466666666666668) translate(-12 -12)" fill="#22262E"><path d="M12,2 C12,2 4,10 4,14.5 C4,17.5 7,19 9.5,17.2 C9,19.4 8,21 6.5,22 L17.5,22 C16,21 15,19.4 14.5,17.2 C17,19 20,17.5 20,14.5 C20,10 12,2 12,2 Z"/></g></g>  <rect width="600" height="600" fill="url(#vig)"/>
</svg>
